<svg width="345" height="302" viewBox="0 0 345 302" fill="none" xmlns="http://www.w3.org/2000/svg">
<path d="M164.949 157.997C164.949 132.963 168.905 108.897 176.343 87.6404C161.547 46.5988 134.228 18.9899 103.028 18.9899C60.9474 18.9899 25.911 69.2178 19.1662 134.924C27.4568 126.214 38.0501 120.038 49.7132 117.114C61.3764 114.191 73.6298 114.641 85.0473 118.411C96.4649 122.182 106.577 129.118 114.207 138.412C121.837 147.707 126.672 158.978 128.147 170.913C129.623 182.849 127.679 194.958 122.543 205.832C117.406 216.705 109.288 225.896 99.1324 232.335C88.9771 238.774 77.2023 242.196 65.1785 242.202C53.1548 242.208 41.3764 238.799 31.2141 232.371C46.3103 271.193 72.8557 297.01 103.053 297.01C134.248 297.01 161.572 269.401 176.388 228.35C168.905 207.108 164.949 183.037 164.949 157.997Z" fill="#231F20"/>
<path d="M123.602 178.705C123.607 166.443 119.758 154.489 112.6 144.534C105.442 134.578 95.3364 127.125 83.7122 123.228C72.0879 119.331 59.533 119.186 47.8223 122.816C36.1116 126.445 25.8376 133.664 18.4528 143.452C18.1435 148.236 17.9888 153.084 17.9888 157.997C17.9888 163.925 18.2133 169.757 18.6623 175.492C19.3678 164.321 24.2313 153.819 32.2943 146.056C40.3573 138.293 51.0349 133.833 62.2227 133.554C73.4105 133.276 84.297 137.198 92.7365 144.55C101.176 151.901 106.556 162.148 107.817 173.27C109.078 184.392 106.128 195.584 99.5485 204.638C92.9688 213.693 83.2369 219.954 72.2707 222.188C61.3045 224.422 49.8995 222.466 40.3035 216.706C30.7076 210.946 23.6166 201.8 20.4283 191.07C22.0775 202.274 24.6863 213.316 28.2258 224.073C36.7997 231.058 47.1784 235.467 58.157 236.789C69.1355 238.11 80.2638 236.291 90.2498 231.54C100.236 226.79 108.67 219.305 114.574 209.953C120.477 200.601 123.608 189.766 123.602 178.705Z" fill="#231F20"/>
<path d="M48.1012 149.126C43.317 149.126 39.4407 152.798 39.4407 157.329C39.4407 161.86 43.317 165.532 48.1012 165.532C52.8855 165.532 56.7568 161.86 56.7568 157.329C56.7568 152.798 52.8805 149.126 48.1012 149.126Z" fill="#231F20"/>
<path d="M57.3255 175.113C57.866 175.083 58.3861 174.896 58.8214 174.575C59.2567 174.253 59.5882 173.811 59.7748 173.302C59.9615 172.794 59.9951 172.242 59.8716 171.715C59.748 171.188 59.4727 170.709 59.0797 170.337C58.6867 169.964 58.1932 169.715 57.6603 169.621C57.1273 169.526 56.5783 169.59 56.0812 169.804C55.584 170.018 55.1604 170.373 54.8629 170.825C54.5654 171.277 54.4069 171.807 54.4071 172.348C54.428 173.102 54.7471 173.816 55.2943 174.335C55.8415 174.853 56.5721 175.133 57.3255 175.113Z" fill="#231F20"/>
<path d="M254.957 18.9899C212.876 18.9899 177.845 69.2178 171.1 134.924C179.391 126.214 189.984 120.038 201.647 117.114C213.31 114.191 225.564 114.641 236.981 118.411C248.399 122.182 258.511 129.118 266.141 138.412C273.772 147.707 278.606 158.978 280.081 170.913C281.557 182.849 279.613 194.958 274.477 205.832C269.34 216.705 261.222 225.896 251.066 232.335C240.911 238.774 229.136 242.196 217.113 242.202C205.089 242.208 193.31 238.799 183.148 232.371C198.244 271.193 224.79 297.01 254.957 297.01C301.852 297.01 339.996 234.637 339.996 157.997C339.996 81.3582 301.852 18.9899 254.957 18.9899Z" fill="#231F20"/>
<path d="M275.551 178.705C275.556 166.443 271.707 154.489 264.549 144.534C257.391 134.578 247.285 127.125 235.661 123.228C224.037 119.331 211.482 119.186 199.771 122.816C188.061 126.445 177.787 133.664 170.402 143.452C170.096 148.236 169.941 153.084 169.938 157.997C169.938 163.925 170.161 169.757 170.606 175.492C171.308 164.315 176.17 153.806 184.234 146.037C192.297 138.268 202.979 133.802 214.171 133.519C225.364 133.236 236.257 137.157 244.703 144.509C253.149 151.861 258.536 162.11 259.801 173.238C261.066 184.365 258.118 195.562 251.538 204.623C244.957 213.684 235.223 219.951 224.252 222.189C213.281 224.427 201.87 222.473 192.268 216.713C182.666 210.953 175.57 201.804 172.377 191.07C174.027 202.274 176.635 213.316 180.175 224.073C188.749 231.058 199.128 235.467 210.107 236.789C221.086 238.11 232.215 236.29 242.201 231.539C252.187 226.789 260.622 219.302 266.525 209.95C272.428 200.597 275.558 189.761 275.551 178.7V178.705Z" fill="#231F20"/>
<path d="M200.05 165.532C204.83 165.532 208.706 161.86 208.706 157.329C208.706 152.798 204.83 149.126 200.05 149.126C195.271 149.126 191.39 152.798 191.39 157.329C191.39 161.86 195.266 165.532 200.05 165.532Z" fill="#231F20"/>
<path d="M209.275 175.113C209.815 175.083 210.335 174.896 210.77 174.575C211.206 174.253 211.537 173.811 211.724 173.302C211.911 172.794 211.944 172.242 211.821 171.715C211.697 171.188 211.422 170.709 211.029 170.337C210.636 169.964 210.142 169.715 209.609 169.621C209.076 169.526 208.527 169.59 208.03 169.804C207.533 170.018 207.109 170.373 206.812 170.825C206.514 171.277 206.356 171.807 206.356 172.348C206.377 173.102 206.696 173.816 207.243 174.335C207.791 174.853 208.521 175.133 209.275 175.113Z" fill="#231F20"/>
<path d="M318.988 56.6284C301.987 29.1392 279.253 14 254.957 14C230.662 14 207.963 29.1392 190.961 56.6284C186.283 64.2415 182.277 72.2471 178.988 80.5548C175.696 72.2481 171.69 64.2426 167.014 56.6284C150.037 29.1392 127.304 14 103.028 14C78.7525 14 56.0135 29.1392 39.0116 56.6284C22.2393 83.7433 13 119.745 13 157.997C13 196.25 22.2393 232.257 39.0116 259.372C56.0135 286.861 78.7475 302 103.028 302C127.309 302 150.037 286.861 167.039 259.372C171.715 251.757 175.721 243.752 179.012 235.445C182.302 243.753 186.308 251.759 190.986 259.372C207.987 286.861 230.721 302 254.997 302C279.272 302 302.011 286.861 319.013 259.372C335.776 232.257 345 196.255 345 157.997C345 119.74 335.776 83.7433 318.988 56.6284ZM254.957 297.01C224.79 297.01 198.244 271.193 183.148 232.371C193.31 238.799 205.089 242.208 217.113 242.202C229.136 242.196 240.911 238.774 251.066 232.335C261.222 225.896 269.34 216.705 274.477 205.832C279.613 194.958 281.557 182.849 280.081 170.913C278.606 158.978 273.772 147.707 266.141 138.412C258.511 129.118 248.399 122.182 236.981 118.411C225.564 114.641 213.31 114.191 201.647 117.114C189.984 120.038 179.391 126.214 171.1 134.924C177.86 69.2178 212.891 18.9899 254.957 18.9899C301.852 18.9899 339.996 81.3632 339.996 157.997C339.996 234.632 301.852 297.01 254.957 297.01ZM103.013 297.01C72.8407 297.01 46.2953 271.193 31.1742 232.371C41.3338 238.804 53.1109 242.219 65.135 242.218C77.1592 242.217 88.9357 238.8 99.0942 232.366C109.253 225.931 117.375 216.743 122.516 205.871C127.658 195 129.606 182.891 128.135 170.954C126.665 159.018 121.835 147.745 114.208 138.447C106.581 129.149 96.4713 122.209 85.0548 118.434C73.6383 114.66 61.3848 114.205 49.7203 117.125C38.0557 120.044 27.46 126.217 19.1662 134.924C25.911 69.2178 60.9474 18.9899 103.028 18.9899C134.223 18.9899 161.547 46.5988 176.363 87.6504C168.925 108.897 164.969 132.963 164.969 158.007C164.969 183.052 168.925 207.113 176.363 228.365C161.547 269.401 134.228 297.01 103.028 297.01H103.013ZM20.4283 191.07C23.6176 201.808 30.7126 210.961 40.3149 216.726C49.9172 222.491 61.3301 224.449 72.3042 222.214C83.2783 219.98 93.0175 213.715 99.6021 204.654C106.187 195.593 109.139 184.393 107.877 173.263C106.616 162.133 101.231 151.879 92.7854 144.523C84.3396 137.166 73.4453 133.241 62.2495 133.521C51.0538 133.801 40.3689 138.265 32.3009 146.034C24.2328 153.803 19.367 164.313 18.6623 175.492C18.2133 169.764 17.9888 163.932 17.9888 157.997C17.9888 153.087 18.1435 148.239 18.4528 143.452C25.4763 134.139 35.1226 127.138 46.153 123.349C57.1834 119.559 69.0946 119.154 80.3571 122.184C91.6197 125.215 101.72 131.543 109.36 140.357C117.001 149.17 121.833 160.067 123.237 171.648C124.641 183.228 122.552 194.964 117.239 205.349C111.925 215.734 103.63 224.293 93.418 229.928C83.2059 235.563 71.543 238.016 59.9268 236.973C48.3105 235.93 37.2711 231.438 28.2258 224.073C24.6863 213.316 22.0775 202.274 20.4283 191.07ZM48.1012 165.532C43.317 165.532 39.4407 161.86 39.4407 157.329C39.4407 152.798 43.317 149.126 48.1012 149.126C52.8855 149.126 56.7568 152.798 56.7568 157.329C56.7568 161.86 52.8805 165.532 48.1012 165.532ZM57.3255 169.584C57.866 169.613 58.3861 169.8 58.8214 170.122C59.2567 170.444 59.5882 170.886 59.7748 171.394C59.9615 171.903 59.9951 172.454 59.8716 172.981C59.748 173.509 59.4727 173.988 59.0797 174.36C58.6867 174.732 58.1932 174.981 57.6603 175.076C57.1273 175.171 56.5783 175.107 56.0812 174.893C55.584 174.679 55.1604 174.324 54.8629 173.872C54.5654 173.419 54.4069 172.89 54.4071 172.348C54.428 171.595 54.7471 170.88 55.2943 170.362C55.8415 169.844 56.5721 169.564 57.3255 169.584ZM180.175 224.073C176.635 213.314 174.026 202.271 172.377 191.065C175.57 201.798 182.666 210.945 192.266 216.705C201.867 222.464 213.277 224.417 224.246 222.18C235.216 219.942 244.949 213.676 251.529 204.616C258.108 195.556 261.055 184.36 259.791 173.234C258.526 162.108 253.14 151.859 244.695 144.508C236.25 137.157 225.359 133.236 214.167 133.519C202.975 133.802 192.296 138.268 184.232 146.036C176.169 153.804 171.308 164.311 170.606 175.487C170.167 169.759 169.944 163.927 169.938 157.993C169.938 153.083 170.092 148.234 170.402 143.447C177.426 134.135 187.072 127.135 198.103 123.346C209.133 119.557 221.044 119.152 232.306 122.183C243.568 125.214 253.667 131.542 261.308 140.356C268.948 149.169 273.78 160.066 275.184 171.646C276.587 183.227 274.499 194.962 269.185 205.347C263.872 215.731 255.578 224.29 245.366 229.925C235.154 235.56 223.492 238.014 211.876 236.971C200.26 235.928 189.22 231.437 180.175 224.073ZM191.39 157.324C191.39 152.793 195.266 149.121 200.05 149.121C204.835 149.121 208.706 152.793 208.706 157.324C208.706 161.855 204.83 165.527 200.05 165.527C195.271 165.527 191.39 161.86 191.39 157.329V157.324ZM209.275 169.579C209.815 169.608 210.335 169.795 210.77 170.117C211.206 170.439 211.537 170.881 211.724 171.389C211.911 171.898 211.944 172.449 211.821 172.976C211.697 173.504 211.422 173.983 211.029 174.355C210.636 174.727 210.142 174.976 209.609 175.071C209.076 175.166 208.527 175.102 208.03 174.888C207.533 174.674 207.109 174.319 206.812 173.867C206.514 173.414 206.356 172.885 206.356 172.343C206.378 171.591 206.698 170.878 207.245 170.36C207.792 169.843 208.522 169.564 209.275 169.584V169.579Z" fill="#231F20"/>
<path d="M151.949 143.997C151.949 118.963 155.905 94.8972 163.343 73.6404C148.547 32.5988 121.228 4.98986 90.028 4.98986C47.9474 4.98986 12.911 55.2178 6.16616 120.924C14.4568 112.214 25.0501 106.038 36.7132 103.114C48.3764 100.191 60.6298 100.641 72.0473 104.411C83.4649 108.182 93.5772 115.118 101.207 124.412C108.837 133.707 113.672 144.978 115.147 156.913C116.623 168.849 114.679 180.958 109.543 191.832C104.406 202.705 96.2878 211.896 86.1324 218.335C75.9771 224.774 64.2023 228.196 52.1785 228.202C40.1548 228.208 28.3764 224.799 18.2141 218.371C33.3103 257.193 59.8557 283.01 90.0529 283.01C121.248 283.01 148.572 255.401 163.388 214.35C155.905 193.108 151.949 169.037 151.949 143.997Z" fill="#F9F4DA"/>
<path d="M110.602 164.705C110.607 152.443 106.758 140.489 99.6 130.534C92.4419 120.578 82.3364 113.125 70.7122 109.228C59.0879 105.331 46.533 105.186 34.8223 108.816C23.1116 112.445 12.8376 119.664 5.45276 129.452C5.14346 134.236 4.98881 139.084 4.98881 143.997C4.98881 149.925 5.2133 155.757 5.66229 161.492C6.36779 150.321 11.2313 139.819 19.2943 132.056C27.3573 124.293 38.0349 119.833 49.2227 119.554C60.4105 119.276 71.297 123.198 79.7365 130.55C88.176 137.901 93.5564 148.148 94.8173 159.27C96.0782 170.392 93.1281 181.584 86.5485 190.638C79.9688 199.693 70.2369 205.954 59.2707 208.188C48.3045 210.422 36.8995 208.466 27.3035 202.706C17.7076 196.946 10.6166 187.8 7.42833 177.07C9.07749 188.274 11.6863 199.316 15.2258 210.073C23.7997 217.058 34.1784 221.467 45.157 222.789C56.1355 224.11 67.2638 222.291 77.2498 217.54C87.2359 212.79 95.6702 205.305 101.574 195.953C107.477 186.601 110.608 175.766 110.602 164.705Z" fill="#0BA95B"/>
<path d="M35.1012 135.126C30.317 135.126 26.4407 138.798 26.4407 143.329C26.4407 147.86 30.317 151.532 35.1012 151.532C39.8855 151.532 43.7568 147.86 43.7568 143.329C43.7568 138.798 39.8805 135.126 35.1012 135.126Z" fill="#F9F4DA"/>
<path d="M44.3255 161.113C44.866 161.083 45.3861 160.896 45.8214 160.575C46.2567 160.253 46.5882 159.811 46.7748 159.302C46.9615 158.794 46.9951 158.242 46.8716 157.715C46.748 157.188 46.4727 156.709 46.0797 156.337C45.6867 155.964 45.1932 155.715 44.6603 155.621C44.1273 155.526 43.5783 155.59 43.0812 155.804C42.584 156.018 42.1604 156.373 41.8629 156.825C41.5654 157.277 41.4069 157.807 41.4071 158.348C41.428 159.102 41.7471 159.816 42.2943 160.335C42.8415 160.853 43.5721 161.133 44.3255 161.113Z" fill="#F9F4DA"/>
<path d="M241.957 4.98986C199.876 4.98986 164.845 55.2178 158.1 120.924C166.391 112.214 176.984 106.038 188.647 103.114C200.31 100.191 212.564 100.641 223.981 104.411C235.399 108.182 245.511 115.118 253.141 124.412C260.772 133.707 265.606 144.978 267.081 156.913C268.557 168.849 266.613 180.958 261.477 191.832C256.34 202.705 248.222 211.896 238.066 218.335C227.911 224.774 216.136 228.196 204.113 228.202C192.089 228.208 180.31 224.799 170.148 218.371C185.244 257.193 211.79 283.01 241.957 283.01C288.852 283.01 326.996 220.637 326.996 143.997C326.996 67.3582 288.852 4.98986 241.957 4.98986Z" fill="#F9F4DA"/>
<path d="M262.551 164.705C262.556 152.443 258.707 140.489 251.549 130.534C244.391 120.578 234.285 113.125 222.661 109.228C211.037 105.331 198.482 105.186 186.771 108.816C175.061 112.445 164.787 119.664 157.402 129.452C157.096 134.236 156.941 139.084 156.938 143.997C156.938 149.925 157.161 155.757 157.606 161.492C158.308 150.315 163.17 139.806 171.234 132.037C179.297 124.268 189.979 119.802 201.171 119.519C212.364 119.236 223.257 123.157 231.703 130.509C240.149 137.861 245.536 148.11 246.801 159.238C248.066 170.365 245.118 181.562 238.538 190.623C231.957 199.684 222.223 205.951 211.252 208.189C200.281 210.427 188.87 208.473 179.268 202.713C169.666 196.953 162.57 187.804 159.377 177.07C161.027 188.274 163.635 199.316 167.175 210.073C175.749 217.058 186.128 221.467 197.107 222.789C208.086 224.11 219.215 222.29 229.201 217.539C239.187 212.789 247.622 205.302 253.525 195.95C259.428 186.597 262.558 175.761 262.551 164.7V164.705Z" fill="#0BA95B"/>
<path d="M187.05 151.532C191.83 151.532 195.706 147.86 195.706 143.329C195.706 138.798 191.83 135.126 187.05 135.126C182.271 135.126 178.39 138.798 178.39 143.329C178.39 147.86 182.266 151.532 187.05 151.532Z" fill="#F9F4DA"/>
<path d="M196.275 161.113C196.815 161.083 197.335 160.896 197.77 160.575C198.206 160.253 198.537 159.811 198.724 159.302C198.911 158.794 198.944 158.242 198.821 157.715C198.697 157.188 198.422 156.709 198.029 156.337C197.636 155.964 197.142 155.715 196.609 155.621C196.076 155.526 195.527 155.59 195.03 155.804C194.533 156.018 194.109 156.373 193.812 156.825C193.514 157.277 193.356 157.807 193.356 158.348C193.377 159.102 193.696 159.816 194.243 160.335C194.791 160.853 195.521 161.133 196.275 161.113Z" fill="#F9F4DA"/>
<path d="M305.988 42.6284C288.987 15.1392 266.253 0 241.957 0C217.662 0 194.963 15.1392 177.961 42.6284C173.283 50.2415 169.277 58.2471 165.988 66.5548C162.696 58.2481 158.69 50.2426 154.014 42.6284C137.037 15.1392 114.304 0 90.028 0C65.7525 0 43.0135 15.1392 26.0116 42.6284C9.23927 69.7433 0 105.745 0 143.997C0 182.25 9.23927 218.257 26.0116 245.372C43.0135 272.861 65.7475 288 90.028 288C114.309 288 137.037 272.861 154.039 245.372C158.715 237.757 162.721 229.752 166.012 221.445C169.302 229.753 173.308 237.759 177.986 245.372C194.987 272.861 217.721 288 241.997 288C266.272 288 289.011 272.861 306.013 245.372C322.776 218.257 332 182.255 332 143.997C332 105.74 322.776 69.7433 305.988 42.6284ZM241.957 283.01C211.79 283.01 185.244 257.193 170.148 218.371C180.31 224.799 192.089 228.208 204.113 228.202C216.136 228.196 227.911 224.774 238.066 218.335C248.222 211.896 256.34 202.705 261.477 191.832C266.613 180.958 268.557 168.849 267.081 156.913C265.606 144.978 260.772 133.707 253.141 124.412C245.511 115.118 235.399 108.182 223.981 104.411C212.564 100.641 200.31 100.191 188.647 103.114C176.984 106.038 166.391 112.214 158.1 120.924C164.86 55.2178 199.891 4.98986 241.957 4.98986C288.852 4.98986 326.996 67.3632 326.996 143.997C326.996 220.632 288.852 283.01 241.957 283.01ZM90.013 283.01C59.8407 283.01 33.2953 257.193 18.1742 218.371C28.3338 224.804 40.1109 228.219 52.135 228.218C64.1592 228.217 75.9357 224.8 86.0942 218.366C96.2526 211.931 104.375 202.743 109.516 191.871C114.658 181 116.606 168.891 115.135 156.954C113.665 145.018 108.835 133.745 101.208 124.447C93.5812 115.149 83.4713 108.209 72.0548 104.434C60.6383 100.66 48.3848 100.205 36.7203 103.125C25.0557 106.044 14.46 112.217 6.16616 120.924C12.911 55.2178 47.9474 4.98986 90.028 4.98986C121.223 4.98986 148.547 32.5988 163.363 73.6504C155.925 94.8972 151.969 118.963 151.969 144.007C151.969 169.052 155.925 193.113 163.363 214.365C148.547 255.401 121.228 283.01 90.028 283.01H90.013ZM7.42833 177.07C10.6176 187.808 17.7126 196.961 27.3149 202.726C36.9172 208.491 48.3301 210.449 59.3042 208.214C70.2783 205.98 80.0175 199.715 86.6021 190.654C93.1867 181.593 96.1391 170.393 94.8773 159.263C93.6155 148.133 88.2311 137.879 79.7854 130.523C71.3396 123.166 60.4453 119.241 49.2495 119.521C38.0538 119.801 27.3689 124.265 19.3009 132.034C11.2328 139.803 6.36696 150.313 5.66229 161.492C5.2133 155.764 4.98881 149.932 4.98881 143.997C4.98881 139.087 5.14346 134.239 5.45276 129.452C12.4763 120.139 22.1226 113.138 33.153 109.349C44.1834 105.559 56.0946 105.154 67.3571 108.184C78.6197 111.215 88.7196 117.543 96.3601 126.357C104.001 135.17 108.833 146.067 110.237 157.648C111.641 169.228 109.552 180.964 104.239 191.349C98.9253 201.734 90.6301 210.293 80.418 215.928C70.2059 221.563 58.543 224.016 46.9268 222.973C35.3105 221.93 24.2711 217.438 15.2258 210.073C11.6863 199.316 9.07749 188.274 7.42833 177.07ZM35.1012 151.532C30.317 151.532 26.4407 147.86 26.4407 143.329C26.4407 138.798 30.317 135.126 35.1012 135.126C39.8855 135.126 43.7568 138.798 43.7568 143.329C43.7568 147.86 39.8805 151.532 35.1012 151.532ZM44.3255 155.584C44.866 155.613 45.3861 155.8 45.8214 156.122C46.2567 156.444 46.5882 156.886 46.7748 157.394C46.9615 157.903 46.9951 158.454 46.8716 158.981C46.748 159.509 46.4727 159.988 46.0797 160.36C45.6867 160.732 45.1932 160.981 44.6603 161.076C44.1273 161.171 43.5783 161.107 43.0812 160.893C42.584 160.679 42.1604 160.324 41.8629 159.872C41.5654 159.419 41.4069 158.89 41.4071 158.348C41.428 157.595 41.7471 156.88 42.2943 156.362C42.8415 155.844 43.5721 155.564 44.3255 155.584ZM167.175 210.073C163.635 199.314 161.026 188.271 159.377 177.065C162.57 187.798 169.666 196.945 179.266 202.705C188.867 208.464 200.277 210.417 211.246 208.18C222.216 205.942 231.949 199.676 238.529 190.616C245.108 181.556 248.055 170.36 246.791 159.234C245.526 148.108 240.14 137.859 231.695 130.508C223.25 123.157 212.359 119.236 201.167 119.519C189.975 119.802 179.296 124.268 171.232 132.036C163.169 139.804 158.308 150.311 157.606 161.487C157.167 155.759 156.944 149.927 156.938 143.993C156.938 139.083 157.092 134.234 157.402 129.447C164.426 120.135 174.072 113.135 185.103 109.346C196.133 105.557 208.044 105.152 219.306 108.183C230.568 111.214 240.667 117.542 248.308 126.356C255.948 135.169 260.78 146.066 262.184 157.646C263.587 169.227 261.499 180.962 256.185 191.347C250.872 201.731 242.578 210.29 232.366 215.925C222.154 221.56 210.492 224.014 198.876 222.971C187.26 221.928 176.22 217.437 167.175 210.073ZM178.39 143.324C178.39 138.793 182.266 135.121 187.05 135.121C191.835 135.121 195.706 138.793 195.706 143.324C195.706 147.855 191.83 151.527 187.05 151.527C182.271 151.527 178.39 147.86 178.39 143.329V143.324ZM196.275 155.579C196.815 155.608 197.335 155.795 197.77 156.117C198.206 156.439 198.537 156.881 198.724 157.389C198.911 157.898 198.944 158.449 198.821 158.976C198.697 159.504 198.422 159.983 198.029 160.355C197.636 160.727 197.142 160.976 196.609 161.071C196.076 161.166 195.527 161.102 195.03 160.888C194.533 160.674 194.109 160.319 193.812 159.867C193.514 159.414 193.356 158.885 193.356 158.343C193.378 157.591 193.698 156.878 194.245 156.36C194.792 155.843 195.522 155.564 196.275 155.584V155.579Z" fill="#231F20"/>
</svg>
